<mxfile host="65bd71144e">
    <diagram id="kuFZAxONL7rrhQcywnqd" name="Page-1">
        <mxGraphModel dx="1264" dy="1771" grid="1" gridSize="10" guides="1" tooltips="1" connect="1" arrows="1" fold="1" page="1" pageScale="1" pageWidth="827" pageHeight="1169" math="0" shadow="0">
            <root>
                <mxCell id="0"/>
                <mxCell id="1" parent="0"/>
                <mxCell id="IB9MZf0YpJqyoVhRSByD-51" value="" style="edgeStyle=orthogonalEdgeStyle;rounded=0;orthogonalLoop=1;jettySize=auto;html=1;fontColor=#CC0066;" parent="1" source="IB9MZf0YpJqyoVhRSByD-1" target="IB9MZf0YpJqyoVhRSByD-7" edge="1">
                    <mxGeometry relative="1" as="geometry"/>
                </mxCell>
                <mxCell id="IB9MZf0YpJqyoVhRSByD-52" value="0..n" style="edgeLabel;html=1;align=center;verticalAlign=middle;resizable=0;points=[];fontColor=#CC0066;" parent="IB9MZf0YpJqyoVhRSByD-51" vertex="1" connectable="0">
                    <mxGeometry x="-0.8595" y="-3" relative="1" as="geometry">
                        <mxPoint y="-13" as="offset"/>
                    </mxGeometry>
                </mxCell>
                <mxCell id="IB9MZf0YpJqyoVhRSByD-60" style="edgeStyle=orthogonalEdgeStyle;rounded=0;orthogonalLoop=1;jettySize=auto;html=1;entryX=0.5;entryY=0;entryDx=0;entryDy=0;fontColor=#CC0066;" parent="1" source="IB9MZf0YpJqyoVhRSByD-1" target="IB9MZf0YpJqyoVhRSByD-15" edge="1">
                    <mxGeometry relative="1" as="geometry"/>
                </mxCell>
                <mxCell id="IB9MZf0YpJqyoVhRSByD-61" value="1..1" style="edgeLabel;html=1;align=center;verticalAlign=middle;resizable=0;points=[];fontColor=#CC0066;" parent="IB9MZf0YpJqyoVhRSByD-60" vertex="1" connectable="0">
                    <mxGeometry x="0.8129" y="3" relative="1" as="geometry">
                        <mxPoint x="-17" y="22" as="offset"/>
                    </mxGeometry>
                </mxCell>
                <mxCell id="IB9MZf0YpJqyoVhRSByD-1" value="Restaurant" style="swimlane;whiteSpace=wrap;html=1;" parent="1" vertex="1">
                    <mxGeometry x="250" y="-1150" width="180" height="210" as="geometry"/>
                </mxCell>
                <mxCell id="IB9MZf0YpJqyoVhRSByD-4" value="&lt;div style=&quot;text-align: left;&quot;&gt;&lt;span style=&quot;background-color: initial;&quot;&gt;id_resto &lt;font color=&quot;#cc0066&quot;&gt;(PK)&lt;/font&gt;&lt;/span&gt;&lt;/div&gt;&lt;div style=&quot;text-align: left;&quot;&gt;&lt;span style=&quot;background-color: initial;&quot;&gt;N de Places : x0, x1, ....xn&lt;/span&gt;&lt;/div&gt;&lt;div style=&quot;text-align: left;&quot;&gt;&lt;span style=&quot;background-color: initial;&quot;&gt;Espace enfant (0,1)&lt;/span&gt;&lt;/div&gt;&lt;div style=&quot;text-align: left;&quot;&gt;&lt;span style=&quot;background-color: initial;&quot;&gt;Service (0,1)&lt;/span&gt;&lt;/div&gt;&lt;div style=&quot;text-align: left;&quot;&gt;&lt;span style=&quot;background-color: initial;&quot;&gt;Accessible Mobilité réduite&lt;/span&gt;&lt;/div&gt;&lt;div style=&quot;text-align: left;&quot;&gt;&lt;span style=&quot;background-color: initial;&quot;&gt;Parking&lt;/span&gt;&lt;/div&gt;&lt;div style=&quot;text-align: left;&quot;&gt;N. telephone_resto&lt;/div&gt;&lt;div style=&quot;text-align: left;&quot;&gt;&lt;span style=&quot;background-color: initial;&quot;&gt;siren&amp;nbsp;&lt;/span&gt;&lt;/div&gt;&lt;div style=&quot;text-align: left;&quot;&gt;&lt;span style=&quot;background-color: initial;&quot;&gt;siret&lt;br&gt;&lt;/span&gt;&lt;/div&gt;&lt;div style=&quot;text-align: left;&quot;&gt;&lt;span style=&quot;background-color: initial;&quot;&gt;Effectif d'employes&lt;/span&gt;&lt;/div&gt;" style="text;html=1;align=center;verticalAlign=middle;resizable=0;points=[];autosize=1;strokeColor=none;fillColor=none;" parent="IB9MZf0YpJqyoVhRSByD-1" vertex="1">
                    <mxGeometry x="-5" y="30" width="170" height="160" as="geometry"/>
                </mxCell>
                <mxCell id="IB9MZf0YpJqyoVhRSByD-49" style="edgeStyle=orthogonalEdgeStyle;rounded=0;orthogonalLoop=1;jettySize=auto;html=1;entryX=0.029;entryY=0.344;entryDx=0;entryDy=0;entryPerimeter=0;fontColor=#CC0066;" parent="1" source="IB9MZf0YpJqyoVhRSByD-2" target="IB9MZf0YpJqyoVhRSByD-4" edge="1">
                    <mxGeometry relative="1" as="geometry"/>
                </mxCell>
                <mxCell id="IB9MZf0YpJqyoVhRSByD-50" value="0..1" style="edgeLabel;html=1;align=center;verticalAlign=middle;resizable=0;points=[];fontColor=#CC0066;" parent="IB9MZf0YpJqyoVhRSByD-49" vertex="1" connectable="0">
                    <mxGeometry x="-0.7462" y="-1" relative="1" as="geometry">
                        <mxPoint y="-16" as="offset"/>
                    </mxGeometry>
                </mxCell>
                <mxCell id="IB9MZf0YpJqyoVhRSByD-2" value="Adresse" style="swimlane;whiteSpace=wrap;html=1;" parent="1" vertex="1">
                    <mxGeometry x="10" y="-1130" width="150" height="130" as="geometry"/>
                </mxCell>
                <mxCell id="IB9MZf0YpJqyoVhRSByD-5" value="&lt;div style=&quot;text-align: left;&quot;&gt;&lt;span style=&quot;background-color: initial;&quot;&gt;id_resto&amp;nbsp;&amp;nbsp;&lt;/span&gt;&lt;span style=&quot;color: rgb(204, 0, 102);&quot;&gt;(FK)&lt;/span&gt;&lt;span style=&quot;background-color: initial;&quot;&gt;&amp;nbsp; &amp;nbsp; &amp;nbsp;&amp;nbsp;&lt;/span&gt;&lt;/div&gt;&lt;div style=&quot;text-align: left;&quot;&gt;&lt;span style=&quot;background-color: initial;&quot;&gt;lat&lt;/span&gt;&lt;/div&gt;&lt;div style=&quot;text-align: left;&quot;&gt;&lt;span style=&quot;background-color: initial;&quot;&gt;lon&lt;/span&gt;&lt;/div&gt;&lt;div style=&quot;text-align: left;&quot;&gt;&lt;span style=&quot;background-color: initial;&quot;&gt;Ville&lt;/span&gt;&lt;/div&gt;&lt;div style=&quot;text-align: left;&quot;&gt;&lt;span style=&quot;background-color: initial;&quot;&gt;code postale&lt;/span&gt;&lt;/div&gt;&lt;div style=&quot;text-align: left;&quot;&gt;&lt;span style=&quot;background-color: initial;&quot;&gt;Pays_resto &lt;font color=&quot;#cc0066&quot;&gt;(FK)&lt;/font&gt;&lt;/span&gt;&lt;/div&gt;&lt;div style=&quot;text-align: left;&quot;&gt;&lt;span style=&quot;background-color: initial;&quot;&gt;&lt;font color=&quot;#33001a&quot;&gt;id_adress&lt;/font&gt;&lt;font color=&quot;#cc0066&quot;&gt; (PK)&lt;/font&gt;&lt;/span&gt;&lt;/div&gt;" style="text;html=1;align=center;verticalAlign=middle;resizable=0;points=[];autosize=1;strokeColor=none;fillColor=none;" parent="IB9MZf0YpJqyoVhRSByD-2" vertex="1">
                    <mxGeometry x="10" y="20" width="120" height="110" as="geometry"/>
                </mxCell>
                <mxCell id="IB9MZf0YpJqyoVhRSByD-56" style="edgeStyle=orthogonalEdgeStyle;rounded=0;orthogonalLoop=1;jettySize=auto;html=1;entryX=0.533;entryY=0.003;entryDx=0;entryDy=0;entryPerimeter=0;fontColor=#CC0066;" parent="1" source="IB9MZf0YpJqyoVhRSByD-6" target="IB9MZf0YpJqyoVhRSByD-13" edge="1">
                    <mxGeometry relative="1" as="geometry"/>
                </mxCell>
                <mxCell id="IB9MZf0YpJqyoVhRSByD-57" value="1..1" style="edgeLabel;html=1;align=center;verticalAlign=middle;resizable=0;points=[];fontColor=#CC0066;" parent="IB9MZf0YpJqyoVhRSByD-56" vertex="1" connectable="0">
                    <mxGeometry x="-0.7195" y="1" relative="1" as="geometry">
                        <mxPoint x="-14" y="3" as="offset"/>
                    </mxGeometry>
                </mxCell>
                <mxCell id="IB9MZf0YpJqyoVhRSByD-6" value="Personnels" style="swimlane;whiteSpace=wrap;html=1;" parent="1" vertex="1">
                    <mxGeometry x="520" y="-1150" width="265" height="340" as="geometry"/>
                </mxCell>
                <mxCell id="IB9MZf0YpJqyoVhRSByD-7" value="&lt;div style=&quot;text-align: left;&quot;&gt;&lt;span style=&quot;background-color: initial;&quot;&gt;id_resto&amp;nbsp; &amp;nbsp; &amp;nbsp; &amp;nbsp; &amp;nbsp;&amp;nbsp;&lt;/span&gt;&lt;span style=&quot;color: rgb(204, 0, 102);&quot;&gt;(FK)&lt;/span&gt;&lt;span style=&quot;background-color: initial;&quot;&gt;&amp;nbsp; &amp;nbsp; &amp;nbsp; &amp;nbsp; &amp;nbsp; &amp;nbsp; &amp;nbsp; &amp;nbsp; &amp;nbsp; &amp;nbsp; &amp;nbsp; &amp;nbsp; &amp;nbsp; &amp;nbsp; &amp;nbsp; &amp;nbsp; &amp;nbsp; &amp;nbsp; &amp;nbsp; &amp;nbsp;&lt;/span&gt;&lt;/div&gt;&lt;div style=&quot;text-align: left;&quot;&gt;&lt;span style=&quot;background-color: initial;&quot;&gt;nom&lt;/span&gt;&lt;/div&gt;&lt;div style=&quot;text-align: left;&quot;&gt;&lt;span style=&quot;background-color: initial;&quot;&gt;prenom&lt;/span&gt;&lt;/div&gt;&lt;div style=&quot;text-align: left;&quot;&gt;&lt;span style=&quot;background-color: initial;&quot;&gt;id_personnel&amp;nbsp; &amp;nbsp;&amp;nbsp;&lt;/span&gt;&lt;span style=&quot;color: rgb(204, 0, 102);&quot;&gt;(PK)&lt;/span&gt;&lt;span style=&quot;background-color: initial;&quot;&gt;&amp;nbsp; &amp;nbsp; &amp;nbsp; &amp;nbsp; &amp;nbsp; &amp;nbsp; &amp;nbsp; &amp;nbsp; &amp;nbsp; &amp;nbsp; &amp;nbsp; &amp;nbsp; &amp;nbsp; &amp;nbsp; &amp;nbsp; &amp;nbsp; &amp;nbsp; &amp;nbsp; &amp;nbsp; &amp;nbsp;&amp;nbsp;&lt;/span&gt;&lt;/div&gt;&lt;div style=&quot;text-align: left;&quot;&gt;directeur (0,1)&lt;span style=&quot;background-color: initial;&quot;&gt;&lt;br&gt;&lt;/span&gt;&lt;/div&gt;&lt;div style=&quot;text-align: left;&quot;&gt;status_employé&lt;/div&gt;&lt;div style=&quot;text-align: left;&quot;&gt;&lt;span style=&quot;background-color: initial;&quot;&gt;N. telephone&lt;/span&gt;&lt;/div&gt;&lt;div style=&quot;text-align: left;&quot;&gt;&lt;span style=&quot;background-color: initial;&quot;&gt;date de naissance&lt;/span&gt;&lt;/div&gt;&lt;div style=&quot;text-align: left;&quot;&gt;&lt;span style=&quot;background-color: initial;&quot;&gt;date d'entree&lt;/span&gt;&lt;/div&gt;&lt;div style=&quot;text-align: left;&quot;&gt;&lt;span style=&quot;background-color: initial;&quot;&gt;en formation (0,1)&lt;/span&gt;&lt;/div&gt;&lt;div style=&quot;text-align: left;&quot;&gt;&lt;span style=&quot;background-color: initial;&quot;&gt;n de changement de poste&lt;br&gt;&lt;/span&gt;&lt;/div&gt;&lt;div style=&quot;text-align: left;&quot;&gt;&lt;span style=&quot;background-color: initial;&quot;&gt;n de changement de Resto&lt;br&gt;&lt;/span&gt;&lt;/div&gt;&lt;div style=&quot;text-align: left;&quot;&gt;&lt;div&gt;&lt;span style=&quot;background-color: initial;&quot;&gt;RIB&lt;/span&gt;&lt;br&gt;&lt;/div&gt;&lt;div&gt;Adresse_perso&lt;/div&gt;&lt;div&gt;Ville&lt;/div&gt;&lt;div&gt;Code postale&lt;/div&gt;&lt;/div&gt;" style="text;html=1;align=center;verticalAlign=middle;resizable=0;points=[];autosize=1;strokeColor=none;fillColor=none;" parent="IB9MZf0YpJqyoVhRSByD-6" vertex="1">
                    <mxGeometry x="21" y="80" width="260" height="240" as="geometry"/>
                </mxCell>
                <mxCell id="IB9MZf0YpJqyoVhRSByD-13" value="Trace de payement" style="swimlane;whiteSpace=wrap;html=1;" parent="1" vertex="1">
                    <mxGeometry x="570" y="-760" width="156.5" height="150" as="geometry"/>
                </mxCell>
                <mxCell id="IB9MZf0YpJqyoVhRSByD-14" value="&lt;div style=&quot;text-align: left;&quot;&gt;&lt;span style=&quot;background-color: initial;&quot;&gt;id_personnel&amp;nbsp;&lt;font color=&quot;#99004d&quot;&gt;(FK)&lt;/font&gt;&lt;/span&gt;&lt;/div&gt;&lt;div style=&quot;text-align: left;&quot;&gt;Année&lt;/div&gt;&lt;div style=&quot;text-align: left;&quot;&gt;Mois&lt;/div&gt;&lt;div style=&quot;text-align: left;&quot;&gt;N heurs de travail/M&lt;/div&gt;&lt;div style=&quot;text-align: left;&quot;&gt;Montant_historique&lt;/div&gt;&lt;div style=&quot;text-align: left;&quot;&gt;Note_manager(1..10)&lt;/div&gt;&lt;div style=&quot;text-align: left;&quot;&gt;id_payement &lt;font color=&quot;#cc0066&quot;&gt;(PK)&lt;/font&gt;&lt;/div&gt;&lt;div style=&quot;text-align: left;&quot;&gt;N de transaction&amp;nbsp;&lt;font color=&quot;#cc0066&quot;&gt;(PK)&lt;/font&gt;&lt;font color=&quot;#cc0066&quot;&gt;&lt;br&gt;&lt;/font&gt;&lt;/div&gt;" style="text;html=1;align=center;verticalAlign=middle;resizable=0;points=[];autosize=1;strokeColor=none;fillColor=none;" parent="IB9MZf0YpJqyoVhRSByD-13" vertex="1">
                    <mxGeometry y="20" width="140" height="130" as="geometry"/>
                </mxCell>
                <mxCell id="IB9MZf0YpJqyoVhRSByD-15" value="Carte" style="swimlane;whiteSpace=wrap;html=1;" parent="1" vertex="1">
                    <mxGeometry x="396.5" y="-660" width="115" height="100" as="geometry"/>
                </mxCell>
                <mxCell id="IB9MZf0YpJqyoVhRSByD-16" value="&lt;div style=&quot;text-align: left;&quot;&gt;Pays_resto&lt;font color=&quot;#99004d&quot;&gt;&amp;nbsp;(PK)&lt;/font&gt;&lt;/div&gt;&lt;div style=&quot;text-align: left;&quot;&gt;id_items&lt;font color=&quot;#99004d&quot;&gt; (FK)&lt;/font&gt;&lt;/div&gt;&lt;div style=&quot;text-align: left;&quot;&gt;id_menu&lt;font color=&quot;#cc0066&quot;&gt;(FK)&lt;/font&gt;&lt;/div&gt;&lt;div style=&quot;text-align: left;&quot;&gt;&lt;br&gt;&lt;/div&gt;" style="text;html=1;align=center;verticalAlign=middle;resizable=0;points=[];autosize=1;strokeColor=none;fillColor=none;" parent="IB9MZf0YpJqyoVhRSByD-15" vertex="1">
                    <mxGeometry y="30" width="110" height="70" as="geometry"/>
                </mxCell>
                <mxCell id="IB9MZf0YpJqyoVhRSByD-79" style="edgeStyle=orthogonalEdgeStyle;rounded=0;orthogonalLoop=1;jettySize=auto;html=1;fontColor=#CC0066;" parent="1" source="IB9MZf0YpJqyoVhRSByD-17" edge="1">
                    <mxGeometry relative="1" as="geometry">
                        <mxPoint x="410" y="-460" as="targetPoint"/>
                    </mxGeometry>
                </mxCell>
                <mxCell id="IB9MZf0YpJqyoVhRSByD-80" value="n..1" style="edgeLabel;html=1;align=center;verticalAlign=middle;resizable=0;points=[];fontColor=#CC0066;" parent="IB9MZf0YpJqyoVhRSByD-79" vertex="1" connectable="0">
                    <mxGeometry x="-0.5455" y="-1" relative="1" as="geometry">
                        <mxPoint x="4" y="-7" as="offset"/>
                    </mxGeometry>
                </mxCell>
                <mxCell id="IB9MZf0YpJqyoVhRSByD-93" style="edgeStyle=orthogonalEdgeStyle;rounded=0;orthogonalLoop=1;jettySize=auto;html=1;entryX=0.968;entryY=1.086;entryDx=0;entryDy=0;entryPerimeter=0;fontColor=#CC0066;" parent="1" source="IB9MZf0YpJqyoVhRSByD-17" target="IB9MZf0YpJqyoVhRSByD-16" edge="1">
                    <mxGeometry relative="1" as="geometry"/>
                </mxCell>
                <mxCell id="IB9MZf0YpJqyoVhRSByD-17" value="item" style="swimlane;whiteSpace=wrap;html=1;" parent="1" vertex="1">
                    <mxGeometry x="450" y="-520" width="106.5" height="115" as="geometry"/>
                </mxCell>
                <mxCell id="IB9MZf0YpJqyoVhRSByD-18" value="&lt;div style=&quot;text-align: left;&quot;&gt;nom_item&lt;/div&gt;&lt;div style=&quot;text-align: left;&quot;&gt;id_item &lt;font color=&quot;#ff0080&quot;&gt;(PK)&lt;/font&gt;&lt;/div&gt;&lt;div style=&quot;text-align: left;&quot;&gt;Boisson_P&lt;/div&gt;&lt;div style=&quot;text-align: left;&quot;&gt;Boisson_M&lt;br&gt;&lt;/div&gt;&lt;div style=&quot;text-align: left;&quot;&gt;Boisson_L&lt;span style=&quot;color: rgb(255, 0, 128);&quot;&gt;&lt;br&gt;&lt;/span&gt;&lt;/div&gt;&lt;div style=&quot;text-align: left;&quot;&gt;prix_vente_item&lt;/div&gt;" style="text;html=1;align=center;verticalAlign=middle;resizable=0;points=[];autosize=1;strokeColor=none;fillColor=none;" parent="IB9MZf0YpJqyoVhRSByD-17" vertex="1">
                    <mxGeometry x="-5" y="15" width="110" height="100" as="geometry"/>
                </mxCell>
                <mxCell id="IB9MZf0YpJqyoVhRSByD-64" style="edgeStyle=orthogonalEdgeStyle;rounded=0;orthogonalLoop=1;jettySize=auto;html=1;entryX=0.5;entryY=1;entryDx=0;entryDy=0;fontColor=#CC0066;" parent="1" source="IB9MZf0YpJqyoVhRSByD-21" target="IB9MZf0YpJqyoVhRSByD-46" edge="1">
                    <mxGeometry relative="1" as="geometry"/>
                </mxCell>
                <mxCell id="IB9MZf0YpJqyoVhRSByD-65" value="1..1" style="edgeLabel;html=1;align=center;verticalAlign=middle;resizable=0;points=[];fontColor=#CC0066;" parent="IB9MZf0YpJqyoVhRSByD-64" vertex="1" connectable="0">
                    <mxGeometry x="-0.714" y="-1" relative="1" as="geometry">
                        <mxPoint x="-16" y="-3" as="offset"/>
                    </mxGeometry>
                </mxCell>
                <mxCell id="IB9MZf0YpJqyoVhRSByD-66" style="edgeStyle=orthogonalEdgeStyle;rounded=0;orthogonalLoop=1;jettySize=auto;html=1;fontColor=#CC0066;" parent="1" source="IB9MZf0YpJqyoVhRSByD-21" target="IB9MZf0YpJqyoVhRSByD-27" edge="1">
                    <mxGeometry relative="1" as="geometry"/>
                </mxCell>
                <mxCell id="IB9MZf0YpJqyoVhRSByD-67" value="n..1" style="edgeLabel;html=1;align=center;verticalAlign=middle;resizable=0;points=[];fontColor=#CC0066;" parent="IB9MZf0YpJqyoVhRSByD-66" vertex="1" connectable="0">
                    <mxGeometry x="-0.8279" relative="1" as="geometry">
                        <mxPoint x="7" y="14" as="offset"/>
                    </mxGeometry>
                </mxCell>
                <mxCell id="IB9MZf0YpJqyoVhRSByD-21" value="Ingreditns" style="swimlane;whiteSpace=wrap;html=1;" parent="1" vertex="1">
                    <mxGeometry x="143.25" y="-540" width="130" height="192.5" as="geometry"/>
                </mxCell>
                <mxCell id="IB9MZf0YpJqyoVhRSByD-22" value="&lt;div style=&quot;text-align: left;&quot;&gt;&lt;div&gt;id_resto &lt;font color=&quot;#ff0080&quot;&gt;(FK)&lt;/font&gt;&lt;/div&gt;&lt;div&gt;List_ingredient&lt;/div&gt;&lt;div&gt;id_ingredient &lt;font color=&quot;#ff0080&quot;&gt;(PK)&lt;/font&gt;&lt;/div&gt;&lt;div&gt;prix_d'achat&lt;/div&gt;&lt;div&gt;Quantité&lt;/div&gt;&lt;div&gt;Prix_total&lt;/div&gt;&lt;div&gt;&lt;br&gt;&lt;/div&gt;&lt;/div&gt;" style="text;html=1;align=center;verticalAlign=middle;resizable=0;points=[];autosize=1;strokeColor=none;fillColor=none;" parent="IB9MZf0YpJqyoVhRSByD-21" vertex="1">
                    <mxGeometry x="-10" y="41.25" width="120" height="110" as="geometry"/>
                </mxCell>
                <mxCell id="IB9MZf0YpJqyoVhRSByD-26" value="&lt;span style=&quot;font-family: &amp;#34;nunito sans&amp;#34; , sans-serif ; font-size: 14px ; font-weight: 400 ; text-align: left ; background-color: rgb(255 , 255 , 255)&quot;&gt;&lt;font color=&quot;#000000&quot;&gt;Table_d'asso&lt;/font&gt;&lt;/span&gt;" style="swimlane;whiteSpace=wrap;html=1;startSize=23;" parent="1" vertex="1">
                    <mxGeometry x="310" y="-540" width="100" height="110" as="geometry"/>
                </mxCell>
                <mxCell id="IB9MZf0YpJqyoVhRSByD-27" value="&lt;div style=&quot;text-align: left;&quot;&gt;id_asso &lt;font color=&quot;#ff0080&quot;&gt;(PK)&lt;/font&gt;&lt;/div&gt;&lt;div style=&quot;text-align: left;&quot;&gt;id_ingred. &lt;font color=&quot;#ff0080&quot;&gt;(FK)&lt;/font&gt;&lt;/div&gt;&lt;div style=&quot;text-align: left;&quot;&gt;id_items &lt;font color=&quot;#ff0080&quot;&gt;(FK)&lt;/font&gt;&lt;/div&gt;" style="text;html=1;align=center;verticalAlign=middle;resizable=0;points=[];autosize=1;strokeColor=none;fillColor=none;" parent="IB9MZf0YpJqyoVhRSByD-26" vertex="1">
                    <mxGeometry x="-5" y="40" width="100" height="60" as="geometry"/>
                </mxCell>
                <mxCell id="IB9MZf0YpJqyoVhRSByD-92" style="edgeStyle=orthogonalEdgeStyle;rounded=0;orthogonalLoop=1;jettySize=auto;html=1;entryX=1;entryY=0.5;entryDx=0;entryDy=0;fontColor=#CC0066;" parent="1" source="IB9MZf0YpJqyoVhRSByD-33" target="IB9MZf0YpJqyoVhRSByD-15" edge="1">
                    <mxGeometry relative="1" as="geometry">
                        <Array as="points">
                            <mxPoint x="652" y="-560"/>
                            <mxPoint x="560" y="-560"/>
                            <mxPoint x="560" y="-610"/>
                        </Array>
                    </mxGeometry>
                </mxCell>
                <mxCell id="IB9MZf0YpJqyoVhRSByD-33" value="Menu" style="swimlane;whiteSpace=wrap;html=1;" parent="1" vertex="1">
                    <mxGeometry x="596.5" y="-540" width="110" height="110" as="geometry"/>
                </mxCell>
                <mxCell id="IB9MZf0YpJqyoVhRSByD-34" value="&lt;div style=&quot;text-align: left;&quot;&gt;Menu_id &lt;font color=&quot;#cc0066&quot;&gt;(PK)&lt;/font&gt;&lt;/div&gt;&lt;div style=&quot;text-align: left;&quot;&gt;Plat&lt;font color=&quot;#cc00cc&quot;&gt;(Fk)&lt;/font&gt;&lt;/div&gt;&lt;div style=&quot;text-align: left;&quot;&gt;Boisson &lt;font color=&quot;#ff0080&quot;&gt;(FK)&lt;/font&gt;&lt;/div&gt;&lt;div style=&quot;text-align: left;&quot;&gt;Dessert&lt;font color=&quot;#cc00cc&quot;&gt;(FK)&lt;/font&gt;&lt;/div&gt;&lt;div style=&quot;text-align: left;&quot;&gt;Prix_vente_menu&lt;/div&gt;" style="text;html=1;align=center;verticalAlign=middle;resizable=0;points=[];autosize=1;strokeColor=none;fillColor=none;" parent="IB9MZf0YpJqyoVhRSByD-33" vertex="1">
                    <mxGeometry x="-2" y="26.25" width="120" height="90" as="geometry"/>
                </mxCell>
                <mxCell id="IB9MZf0YpJqyoVhRSByD-37" value="Facture" style="swimlane;whiteSpace=wrap;html=1;" parent="1" vertex="1">
                    <mxGeometry x="615.5" y="-357.5" width="111" height="220" as="geometry"/>
                </mxCell>
                <mxCell id="IB9MZf0YpJqyoVhRSByD-38" value="&lt;div style=&quot;text-align: left;&quot;&gt;&lt;div&gt;id_fact &lt;font color=&quot;#cc0066&quot;&gt;(PK)&lt;/font&gt;&lt;/div&gt;&lt;div&gt;id_vendeur &lt;font color=&quot;#cc0066&quot;&gt;(FK)&lt;/font&gt;&lt;/div&gt;&lt;div&gt;date&lt;/div&gt;&lt;div&gt;heur&lt;/div&gt;&lt;div&gt;Borne (0,1)&lt;/div&gt;&lt;div&gt;id_resto&lt;/div&gt;&lt;div&gt;payment_type&lt;/div&gt;&lt;div&gt;nom_item&lt;/div&gt;&lt;div&gt;prix_vente_item&lt;/div&gt;&lt;div&gt;prix total&amp;nbsp;&lt;/div&gt;&lt;div&gt;&lt;br&gt;&lt;/div&gt;&lt;/div&gt;" style="text;html=1;align=center;verticalAlign=middle;resizable=0;points=[];autosize=1;strokeColor=none;fillColor=none;" parent="IB9MZf0YpJqyoVhRSByD-37" vertex="1">
                    <mxGeometry y="25" width="110" height="170" as="geometry"/>
                </mxCell>
                <mxCell id="IB9MZf0YpJqyoVhRSByD-41" value="&lt;span style=&quot;font-family: &amp;#34;nunito sans&amp;#34; , sans-serif ; font-size: 14px ; font-weight: 400 ; text-align: left ; background-color: rgb(255 , 255 , 255)&quot;&gt;&lt;font color=&quot;#000000&quot;&gt;Table_d'asso_Facture&lt;/font&gt;&lt;br&gt;&lt;/span&gt;" style="swimlane;whiteSpace=wrap;html=1;" parent="1" vertex="1">
                    <mxGeometry x="290" y="-327.5" width="183" height="160" as="geometry"/>
                </mxCell>
                <mxCell id="IB9MZf0YpJqyoVhRSByD-42" value="&lt;div style=&quot;text-align: left;&quot;&gt;id_asso_Fact &lt;font color=&quot;#cc0066&quot;&gt;(PK)&lt;/font&gt;&lt;br&gt;&lt;/div&gt;&lt;div style=&quot;text-align: left;&quot;&gt;menu_id &lt;font color=&quot;#cc0066&quot;&gt;(FK)&lt;/font&gt;&lt;/div&gt;&lt;div style=&quot;text-align: left;&quot;&gt;id_Fact &lt;font color=&quot;#ff0080&quot;&gt;(FK)&lt;/font&gt;&lt;/div&gt;&lt;div style=&quot;text-align: left;&quot;&gt;&lt;br&gt;&lt;/div&gt;" style="text;html=1;align=center;verticalAlign=middle;resizable=0;points=[];autosize=1;strokeColor=none;fillColor=none;" parent="IB9MZf0YpJqyoVhRSByD-41" vertex="1">
                    <mxGeometry x="-5" y="45" width="120" height="70" as="geometry"/>
                </mxCell>
                <mxCell id="IB9MZf0YpJqyoVhRSByD-46" value="&lt;span style=&quot;font-family: &amp;quot;Nunito Sans&amp;quot;, sans-serif; font-size: 14px; font-weight: 400; text-align: left; background-color: rgb(255, 255, 255);&quot;&gt;Table_d'asso_Stock&lt;br&gt;&lt;/span&gt;" style="swimlane;whiteSpace=wrap;html=1;" parent="1" vertex="1">
                    <mxGeometry x="116.75" y="-750" width="183" height="160" as="geometry"/>
                </mxCell>
                <mxCell id="IB9MZf0YpJqyoVhRSByD-47" value="&lt;div style=&quot;text-align: left;&quot;&gt;id_resto (FK)&lt;/div&gt;&lt;div style=&quot;text-align: left;&quot;&gt;id_ingredient&amp;nbsp;&lt;font color=&quot;#ff0080&quot;&gt;(FK)&lt;/font&gt;&lt;br&gt;&lt;/div&gt;&lt;div style=&quot;text-align: left;&quot;&gt;Quantité_rest&lt;br&gt;&lt;/div&gt;&lt;div style=&quot;text-align: left;&quot;&gt;Stock_quantité&lt;br&gt;&lt;/div&gt;&lt;div style=&quot;text-align: left;&quot;&gt;id_table_asso_stockl (PK)&lt;/div&gt;" style="text;html=1;align=center;verticalAlign=middle;resizable=0;points=[];autosize=1;strokeColor=none;fillColor=none;" parent="IB9MZf0YpJqyoVhRSByD-46" vertex="1">
                    <mxGeometry y="35" width="160" height="90" as="geometry"/>
                </mxCell>
                <mxCell id="IB9MZf0YpJqyoVhRSByD-58" style="edgeStyle=orthogonalEdgeStyle;rounded=0;orthogonalLoop=1;jettySize=auto;html=1;entryX=1.013;entryY=0.591;entryDx=0;entryDy=0;entryPerimeter=0;fontColor=#CC0066;" parent="1" source="IB9MZf0YpJqyoVhRSByD-7" target="IB9MZf0YpJqyoVhRSByD-38" edge="1">
                    <mxGeometry relative="1" as="geometry">
                        <Array as="points">
                            <mxPoint x="830" y="-980"/>
                            <mxPoint x="830" y="-232"/>
                        </Array>
                    </mxGeometry>
                </mxCell>
                <mxCell id="IB9MZf0YpJqyoVhRSByD-59" value="1..1" style="edgeLabel;html=1;align=center;verticalAlign=middle;resizable=0;points=[];fontColor=#CC0066;" parent="IB9MZf0YpJqyoVhRSByD-58" vertex="1" connectable="0">
                    <mxGeometry x="0.9046" y="-1" relative="1" as="geometry">
                        <mxPoint x="-21" y="-14" as="offset"/>
                    </mxGeometry>
                </mxCell>
                <mxCell id="IB9MZf0YpJqyoVhRSByD-62" style="edgeStyle=orthogonalEdgeStyle;rounded=0;orthogonalLoop=1;jettySize=auto;html=1;entryX=0.378;entryY=0.017;entryDx=0;entryDy=0;entryPerimeter=0;fontColor=#CC0066;" parent="1" edge="1">
                    <mxGeometry relative="1" as="geometry">
                        <mxPoint x="248" y="-1009.9655172413793" as="sourcePoint"/>
                        <mxPoint x="188.92399999999998" y="-747.28" as="targetPoint"/>
                        <Array as="points">
                            <mxPoint x="189" y="-1010"/>
                        </Array>
                    </mxGeometry>
                </mxCell>
                <mxCell id="IB9MZf0YpJqyoVhRSByD-63" value="1..n" style="edgeLabel;html=1;align=center;verticalAlign=middle;resizable=0;points=[];fontColor=#CC0066;" parent="IB9MZf0YpJqyoVhRSByD-62" vertex="1" connectable="0">
                    <mxGeometry x="0.8161" y="2" relative="1" as="geometry">
                        <mxPoint x="-21" y="17" as="offset"/>
                    </mxGeometry>
                </mxCell>
                <mxCell id="IB9MZf0YpJqyoVhRSByD-81" style="edgeStyle=orthogonalEdgeStyle;rounded=0;orthogonalLoop=1;jettySize=auto;html=1;entryX=0.011;entryY=0.426;entryDx=0;entryDy=0;entryPerimeter=0;fontColor=#CC0066;" parent="1" source="IB9MZf0YpJqyoVhRSByD-18" target="IB9MZf0YpJqyoVhRSByD-34" edge="1">
                    <mxGeometry relative="1" as="geometry"/>
                </mxCell>
                <mxCell id="IB9MZf0YpJqyoVhRSByD-82" value="n..1" style="edgeLabel;html=1;align=center;verticalAlign=middle;resizable=0;points=[];fontColor=#CC0066;" parent="IB9MZf0YpJqyoVhRSByD-81" vertex="1" connectable="0">
                    <mxGeometry x="-0.7477" y="-2" relative="1" as="geometry">
                        <mxPoint x="10" y="-12" as="offset"/>
                    </mxGeometry>
                </mxCell>
                <mxCell id="IB9MZf0YpJqyoVhRSByD-83" style="edgeStyle=orthogonalEdgeStyle;rounded=0;orthogonalLoop=1;jettySize=auto;html=1;fontColor=#CC0066;" parent="1" source="IB9MZf0YpJqyoVhRSByD-34" target="IB9MZf0YpJqyoVhRSByD-41" edge="1">
                    <mxGeometry relative="1" as="geometry">
                        <Array as="points">
                            <mxPoint x="655" y="-370"/>
                            <mxPoint x="381" y="-370"/>
                        </Array>
                    </mxGeometry>
                </mxCell>
                <mxCell id="IB9MZf0YpJqyoVhRSByD-84" value="n..1" style="edgeLabel;html=1;align=center;verticalAlign=middle;resizable=0;points=[];fontColor=#CC0066;" parent="IB9MZf0YpJqyoVhRSByD-83" vertex="1" connectable="0">
                    <mxGeometry x="-0.0321" y="-2" relative="1" as="geometry">
                        <mxPoint x="-125" y="-8" as="offset"/>
                    </mxGeometry>
                </mxCell>
                <mxCell id="IB9MZf0YpJqyoVhRSByD-85" style="edgeStyle=orthogonalEdgeStyle;rounded=0;orthogonalLoop=1;jettySize=auto;html=1;entryX=1;entryY=0.5;entryDx=0;entryDy=0;fontColor=#CC0066;" parent="1" source="IB9MZf0YpJqyoVhRSByD-38" target="IB9MZf0YpJqyoVhRSByD-41" edge="1">
                    <mxGeometry relative="1" as="geometry"/>
                </mxCell>
                <mxCell id="IB9MZf0YpJqyoVhRSByD-86" value="n..1" style="edgeLabel;html=1;align=center;verticalAlign=middle;resizable=0;points=[];fontColor=#CC0066;" parent="IB9MZf0YpJqyoVhRSByD-85" vertex="1" connectable="0">
                    <mxGeometry x="0.3012" y="-2" relative="1" as="geometry">
                        <mxPoint x="57" y="-10" as="offset"/>
                    </mxGeometry>
                </mxCell>
            </root>
        </mxGraphModel>
    </diagram>
</mxfile>